<?xml version="1.0" encoding="utf-8"?>
<!-- Generator: Adobe Illustrator 24.0.1, SVG Export Plug-In . SVG Version: 6.00 Build 0)  -->
<svg width="16px" height="16px" version="1.1" id="图层_1" xmlns="http://www.w3.org/2000/svg" xmlns:xlink="http://www.w3.org/1999/xlink" x="0px" y="0px"
	 viewBox="0 0 16 16" style="enable-background:new 0 0 16 16;" xml:space="preserve">
<style type="text/css">
	.st0{fill:#979797;}
</style>
<title>4.组件/2.通用/icon/状态栏/设置备份</title>
<g id="页面-1">
	<g id="_x33_.颜色_x2F_10.辅助说明文本" transform="translate(0.000000, 1.000000)">
		<g id="蒙版" transform="translate(8.000000, 8.000000) scale(-1, 1) translate(-8.000000, -8.000000) ">
			<path id="path-1_1_" class="st0" d="M7.8-1c-2,0.1-3.9,1-5.4,2.4c-3.2,3.2-3.3,8.2-0.2,11.3s8.2,3,11.3-0.2
				c1.4-1.4,2.2-3.2,2.4-5.1C16,7.2,15.8,7,15.5,7c-0.3,0-0.5,0.2-0.5,0.4c-0.2,1.7-0.9,3.2-2.1,4.5C10.1,14.7,5.7,14.7,3,12
				S0.3,4.9,3.1,2.1c1.3-1.3,3-2,4.8-2.1c0.3,0,0.5-0.2,0.5-0.5S8.1-1,7.8-1z M10.4,4L10.4,4l-7.1,7c-0.2,0.2-0.2,0.5,0,0.7
				c0.2,0.2,0.5,0.2,0.7,0.1l0.1-0.1l7-7c0.2-0.2,0.2-0.5,0-0.7C10.9,3.9,10.6,3.8,10.4,4z M7.6,1.2c-0.3,0-0.5,0.2-0.5,0.5
				c0,0.2,0.2,0.4,0.4,0.5l0.1,0H13v5.4c0,0.2,0.2,0.4,0.4,0.5l0.1,0c0.2,0,0.4-0.2,0.5-0.4l0-0.1V1.7c0-0.2-0.2-0.4-0.4-0.5l-0.1,0
				H7.6z"/>
		</g>
	</g>
</g>
</svg>
