<?xml version="1.0" encoding="utf-8"?>
<!-- Generator: Adobe Illustrator 24.0.1, SVG Export Plug-In . SVG Version: 6.00 Build 0)  -->
<svg width="16px" height="16px" version="1.1" id="图层_1" xmlns="http://www.w3.org/2000/svg" xmlns:xlink="http://www.w3.org/1999/xlink" x="0px" y="0px"
	 viewBox="0 0 16 16" style="enable-background:new 0 0 16 16;" xml:space="preserve">
<style type="text/css">
	.st0{fill-rule:evenodd;clip-rule:evenodd;fill:#979797;}
</style>
<title>icon/16/查看密码</title>
<g id="页面-1">
	<g id="形状结合备份" transform="translate(-1.000000, -1.000000)">
		<path class="st0" d="M13.5,1.8L13.5,1.8l0.2,0.1C13.9,2,14,2.3,13.8,2.5l-1.3,2.2c1.2,0.8,2.2,1.9,3.2,3.4
			c0.1,0.1,0.2,0.3,0.2,0.6c0,0.3-0.2,0.5-0.3,0.6c-1.8,2.7-4.1,4.3-6.6,4.3c-0.5,0-1-0.1-1.5-0.2L6,16.1c-0.1,0.2-0.4,0.3-0.7,0.2
			l0,0l-0.2-0.1C5,16,4.9,15.7,5,15.5l7.8-13.5C13,1.7,13.3,1.6,13.5,1.8z M9,3.7c0.5,0,1,0.1,1.6,0.2L9.9,4.9
			c-0.2,0-0.5-0.1-0.7-0.1L9,4.9c-1.9,0-3.9,1.3-5.4,3.6c-0.1,0.1-0.1,0.3,0,0.5l0,0c0.8,1.1,1.6,2,2.6,2.6l-0.6,1
			c-1.2-0.8-2.3-1.9-3.2-3.4c0-0.1-0.2-0.3-0.2-0.6c0-0.3,0.1-0.4,0.2-0.5C4.1,5.4,6.4,3.7,9,3.7z M11.9,5.8l-1.1,2
			C10.9,8,11,8.3,11,8.7c0,1.1-0.8,1.9-1.9,2l-1,1.7c0.2,0,0.4,0.1,0.6,0.1l0.2,0c1.9,0,3.9-1.3,5.4-3.6l0,0c0.1-0.1,0.1-0.3,0-0.4
			l0-0.1C13.7,7.3,12.8,6.4,11.9,5.8z M8.9,6.7L7.2,9.6C7.1,9.3,7,9,7,8.7C7,7.6,7.9,6.7,8.9,6.7z"/>
	</g>
</g>
</svg>
