<?xml version="1.0" encoding="UTF-8"?>
<svg width="16px" height="16px" viewBox="0 0 16 16" version="1.1" xmlns="http://www.w3.org/2000/svg" xmlns:xlink="http://www.w3.org/1999/xlink">
    <title>编组 13</title>
    <g id="页面-1" stroke="none" stroke-width="1" fill="none" fill-rule="evenodd">
        <g id="编组-13">
            <g id="形状结合备份" fill="#979797">
                <path d="M7.86872165,3 C10.4438486,3 12.7916353,4.7033783 14.5642372,7.50140669 C14.616264,7.58353032 14.7221194,7.75154096 14.7221194,8.05862257 C14.7221194,8.36570419 14.5279227,8.55596045 14.458951,8.66182776 C12.699168,11.3629859 10.3931863,13 7.86872165,13 C5.31010926,13 2.9759305,11.3183995 1.2073806,8.55229014 C1.16999907,8.49382337 1.01295686,8.28219987 1.00073605,8 C0.988515229,7.71780013 1.13209439,7.56714946 1.1626251,7.51880799 C2.9364599,4.71016799 5.28846759,3 7.86872165,3 Z M7.86872165,4.2 C5.92515919,4.2 4.00969926,5.4506658 2.43721833,7.76247201 C2.34123566,7.90631458 2.34113086,8.09375526 2.43695262,8.23770508 L2.43718306,8.23805126 C3.94926873,10.4605432 5.77841224,11.702234 7.64461709,11.794461 L7.86872165,11.8 C9.8122841,11.8 11.727744,10.5493342 13.300225,8.23752799 L13.3009141,8.23648429 C13.3801309,8.11651084 13.3931549,7.96675014 13.3400547,7.83699952 L13.3002602,7.76194874 C11.7881746,5.5394568 9.95903105,4.29776598 8.0928262,4.20553902 L7.86872165,4.2 Z M7.86872165,6.5 C8.69714877,6.5 9.36872165,7.17157288 9.36872165,8 C9.36872165,8.82842712 8.69714877,9.5 7.86872165,9.5 C7.04029452,9.5 6.36872165,8.82842712 6.36872165,8 C6.36872165,7.17157288 7.04029452,6.5 7.86872165,6.5 Z"></path>
            </g>
            <rect id="矩形" x="0" y="0" width="16" height="16"></rect>
        </g>
    </g>
</svg>